G04 #@! TF.GenerationSoftware,KiCad,Pcbnew,5.1.6*
G04 #@! TF.CreationDate,2020-07-17T09:44:00+02:00*
G04 #@! TF.ProjectId,luminaire,6c756d69-6e61-4697-9265-2e6b69636164,rev?*
G04 #@! TF.SameCoordinates,Original*
G04 #@! TF.FileFunction,Paste,Top*
G04 #@! TF.FilePolarity,Positive*
%FSLAX46Y46*%
G04 Gerber Fmt 4.6, Leading zero omitted, Abs format (unit mm)*
G04 Created by KiCad (PCBNEW 5.1.6) date 2020-07-17 09:44:00*
%MOMM*%
%LPD*%
G01*
G04 APERTURE LIST*
%ADD10R,0.950000X0.502500*%
%ADD11R,0.650000X0.950000*%
%ADD12R,0.700000X0.950000*%
%ADD13R,1.000000X0.550000*%
%ADD14R,3.150000X1.000000*%
%ADD15R,0.800000X0.900000*%
G04 APERTURE END LIST*
D10*
X174961360Y-145425000D03*
D11*
X174811360Y-145650000D03*
D12*
X172486360Y-144375000D03*
D13*
X172336360Y-144575000D03*
D11*
X174811360Y-144350000D03*
D10*
X174961360Y-144575000D03*
D13*
X172336360Y-145425000D03*
D12*
X172486360Y-145625000D03*
D11*
X173436360Y-144375000D03*
X173436360Y-145625000D03*
D10*
X168506815Y-145425000D03*
D11*
X168356815Y-145650000D03*
D12*
X166031815Y-144375000D03*
D13*
X165881815Y-144575000D03*
D11*
X168356815Y-144350000D03*
D10*
X168506815Y-144575000D03*
D13*
X165881815Y-145425000D03*
D12*
X166031815Y-145625000D03*
D11*
X166981815Y-144375000D03*
X166981815Y-145625000D03*
D10*
X149143180Y-145425000D03*
D11*
X148993180Y-145650000D03*
D12*
X146668180Y-144375000D03*
D13*
X146518180Y-144575000D03*
D11*
X148993180Y-144350000D03*
D10*
X149143180Y-144575000D03*
D13*
X146518180Y-145425000D03*
D12*
X146668180Y-145625000D03*
D11*
X147618180Y-144375000D03*
X147618180Y-145625000D03*
D10*
X129779545Y-145425000D03*
D11*
X129629545Y-145650000D03*
D12*
X127304545Y-144375000D03*
D13*
X127154545Y-144575000D03*
D11*
X129629545Y-144350000D03*
D10*
X129779545Y-144575000D03*
D13*
X127154545Y-145425000D03*
D12*
X127304545Y-145625000D03*
D11*
X128254545Y-144375000D03*
X128254545Y-145625000D03*
D10*
X123325000Y-145425000D03*
D11*
X123175000Y-145650000D03*
D12*
X120850000Y-144375000D03*
D13*
X120700000Y-144575000D03*
D11*
X123175000Y-144350000D03*
D10*
X123325000Y-144575000D03*
D13*
X120700000Y-145425000D03*
D12*
X120850000Y-145625000D03*
D11*
X121800000Y-144375000D03*
X121800000Y-145625000D03*
D10*
X194325000Y-145425000D03*
D11*
X194175000Y-145650000D03*
D12*
X191850000Y-144375000D03*
D13*
X191700000Y-144575000D03*
D11*
X194175000Y-144350000D03*
D10*
X194325000Y-144575000D03*
D13*
X191700000Y-145425000D03*
D12*
X191850000Y-145625000D03*
D11*
X192800000Y-144375000D03*
X192800000Y-145625000D03*
D10*
X162052270Y-145425000D03*
D11*
X161902270Y-145650000D03*
D12*
X159577270Y-144375000D03*
D13*
X159427270Y-144575000D03*
D11*
X161902270Y-144350000D03*
D10*
X162052270Y-144575000D03*
D13*
X159427270Y-145425000D03*
D12*
X159577270Y-145625000D03*
D11*
X160527270Y-144375000D03*
X160527270Y-145625000D03*
D10*
X181415905Y-145425000D03*
D11*
X181265905Y-145650000D03*
D12*
X178940905Y-144375000D03*
D13*
X178790905Y-144575000D03*
D11*
X181265905Y-144350000D03*
D10*
X181415905Y-144575000D03*
D13*
X178790905Y-145425000D03*
D12*
X178940905Y-145625000D03*
D11*
X179890905Y-144375000D03*
X179890905Y-145625000D03*
D14*
X95525000Y-149010000D03*
X90475000Y-149010000D03*
X95525000Y-146470000D03*
X90475000Y-146470000D03*
X95525000Y-143930000D03*
X90475000Y-143930000D03*
X95525000Y-141390000D03*
X90475000Y-141390000D03*
G36*
G01*
X119556250Y-147950000D02*
X119043750Y-147950000D01*
G75*
G02*
X118825000Y-147731250I0J218750D01*
G01*
X118825000Y-147293750D01*
G75*
G02*
X119043750Y-147075000I218750J0D01*
G01*
X119556250Y-147075000D01*
G75*
G02*
X119775000Y-147293750I0J-218750D01*
G01*
X119775000Y-147731250D01*
G75*
G02*
X119556250Y-147950000I-218750J0D01*
G01*
G37*
G36*
G01*
X119556250Y-149525000D02*
X119043750Y-149525000D01*
G75*
G02*
X118825000Y-149306250I0J218750D01*
G01*
X118825000Y-148868750D01*
G75*
G02*
X119043750Y-148650000I218750J0D01*
G01*
X119556250Y-148650000D01*
G75*
G02*
X119775000Y-148868750I0J-218750D01*
G01*
X119775000Y-149306250D01*
G75*
G02*
X119556250Y-149525000I-218750J0D01*
G01*
G37*
D10*
X187870450Y-145425000D03*
D11*
X187720450Y-145650000D03*
D12*
X185395450Y-144375000D03*
D13*
X185245450Y-144575000D03*
D11*
X187720450Y-144350000D03*
D10*
X187870450Y-144575000D03*
D13*
X185245450Y-145425000D03*
D12*
X185395450Y-145625000D03*
D11*
X186345450Y-144375000D03*
X186345450Y-145625000D03*
D10*
X142688635Y-145425000D03*
D11*
X142538635Y-145650000D03*
D12*
X140213635Y-144375000D03*
D13*
X140063635Y-144575000D03*
D11*
X142538635Y-144350000D03*
D10*
X142688635Y-144575000D03*
D13*
X140063635Y-145425000D03*
D12*
X140213635Y-145625000D03*
D11*
X141163635Y-144375000D03*
X141163635Y-145625000D03*
D10*
X155597725Y-145425000D03*
D11*
X155447725Y-145650000D03*
D12*
X153122725Y-144375000D03*
D13*
X152972725Y-144575000D03*
D11*
X155447725Y-144350000D03*
D10*
X155597725Y-144575000D03*
D13*
X152972725Y-145425000D03*
D12*
X153122725Y-145625000D03*
D11*
X154072725Y-144375000D03*
X154072725Y-145625000D03*
D10*
X136234090Y-145425000D03*
D11*
X136084090Y-145650000D03*
D12*
X133759090Y-144375000D03*
D13*
X133609090Y-144575000D03*
D11*
X136084090Y-144350000D03*
D10*
X136234090Y-144575000D03*
D13*
X133609090Y-145425000D03*
D12*
X133759090Y-145625000D03*
D11*
X134709090Y-144375000D03*
X134709090Y-145625000D03*
D15*
X121900000Y-147500000D03*
X122850000Y-149500000D03*
X120950000Y-149500000D03*
D10*
X174961360Y-125425000D03*
D11*
X174811360Y-125650000D03*
D12*
X172486360Y-124375000D03*
D13*
X172336360Y-124575000D03*
D11*
X174811360Y-124350000D03*
D10*
X174961360Y-124575000D03*
D13*
X172336360Y-125425000D03*
D12*
X172486360Y-125625000D03*
D11*
X173436360Y-124375000D03*
X173436360Y-125625000D03*
D10*
X168506815Y-125425000D03*
D11*
X168356815Y-125650000D03*
D12*
X166031815Y-124375000D03*
D13*
X165881815Y-124575000D03*
D11*
X168356815Y-124350000D03*
D10*
X168506815Y-124575000D03*
D13*
X165881815Y-125425000D03*
D12*
X166031815Y-125625000D03*
D11*
X166981815Y-124375000D03*
X166981815Y-125625000D03*
D10*
X149143180Y-125425000D03*
D11*
X148993180Y-125650000D03*
D12*
X146668180Y-124375000D03*
D13*
X146518180Y-124575000D03*
D11*
X148993180Y-124350000D03*
D10*
X149143180Y-124575000D03*
D13*
X146518180Y-125425000D03*
D12*
X146668180Y-125625000D03*
D11*
X147618180Y-124375000D03*
X147618180Y-125625000D03*
D10*
X129779545Y-125425000D03*
D11*
X129629545Y-125650000D03*
D12*
X127304545Y-124375000D03*
D13*
X127154545Y-124575000D03*
D11*
X129629545Y-124350000D03*
D10*
X129779545Y-124575000D03*
D13*
X127154545Y-125425000D03*
D12*
X127304545Y-125625000D03*
D11*
X128254545Y-124375000D03*
X128254545Y-125625000D03*
D10*
X123325000Y-125425000D03*
D11*
X123175000Y-125650000D03*
D12*
X120850000Y-124375000D03*
D13*
X120700000Y-124575000D03*
D11*
X123175000Y-124350000D03*
D10*
X123325000Y-124575000D03*
D13*
X120700000Y-125425000D03*
D12*
X120850000Y-125625000D03*
D11*
X121800000Y-124375000D03*
X121800000Y-125625000D03*
D10*
X194325000Y-125425000D03*
D11*
X194175000Y-125650000D03*
D12*
X191850000Y-124375000D03*
D13*
X191700000Y-124575000D03*
D11*
X194175000Y-124350000D03*
D10*
X194325000Y-124575000D03*
D13*
X191700000Y-125425000D03*
D12*
X191850000Y-125625000D03*
D11*
X192800000Y-124375000D03*
X192800000Y-125625000D03*
D10*
X162052270Y-125425000D03*
D11*
X161902270Y-125650000D03*
D12*
X159577270Y-124375000D03*
D13*
X159427270Y-124575000D03*
D11*
X161902270Y-124350000D03*
D10*
X162052270Y-124575000D03*
D13*
X159427270Y-125425000D03*
D12*
X159577270Y-125625000D03*
D11*
X160527270Y-124375000D03*
X160527270Y-125625000D03*
D10*
X181415905Y-125425000D03*
D11*
X181265905Y-125650000D03*
D12*
X178940905Y-124375000D03*
D13*
X178790905Y-124575000D03*
D11*
X181265905Y-124350000D03*
D10*
X181415905Y-124575000D03*
D13*
X178790905Y-125425000D03*
D12*
X178940905Y-125625000D03*
D11*
X179890905Y-124375000D03*
X179890905Y-125625000D03*
D14*
X95525000Y-129010000D03*
X90475000Y-129010000D03*
X95525000Y-126470000D03*
X90475000Y-126470000D03*
X95525000Y-123930000D03*
X90475000Y-123930000D03*
X95525000Y-121390000D03*
X90475000Y-121390000D03*
G36*
G01*
X119556250Y-127950000D02*
X119043750Y-127950000D01*
G75*
G02*
X118825000Y-127731250I0J218750D01*
G01*
X118825000Y-127293750D01*
G75*
G02*
X119043750Y-127075000I218750J0D01*
G01*
X119556250Y-127075000D01*
G75*
G02*
X119775000Y-127293750I0J-218750D01*
G01*
X119775000Y-127731250D01*
G75*
G02*
X119556250Y-127950000I-218750J0D01*
G01*
G37*
G36*
G01*
X119556250Y-129525000D02*
X119043750Y-129525000D01*
G75*
G02*
X118825000Y-129306250I0J218750D01*
G01*
X118825000Y-128868750D01*
G75*
G02*
X119043750Y-128650000I218750J0D01*
G01*
X119556250Y-128650000D01*
G75*
G02*
X119775000Y-128868750I0J-218750D01*
G01*
X119775000Y-129306250D01*
G75*
G02*
X119556250Y-129525000I-218750J0D01*
G01*
G37*
D10*
X187870450Y-125425000D03*
D11*
X187720450Y-125650000D03*
D12*
X185395450Y-124375000D03*
D13*
X185245450Y-124575000D03*
D11*
X187720450Y-124350000D03*
D10*
X187870450Y-124575000D03*
D13*
X185245450Y-125425000D03*
D12*
X185395450Y-125625000D03*
D11*
X186345450Y-124375000D03*
X186345450Y-125625000D03*
D10*
X142688635Y-125425000D03*
D11*
X142538635Y-125650000D03*
D12*
X140213635Y-124375000D03*
D13*
X140063635Y-124575000D03*
D11*
X142538635Y-124350000D03*
D10*
X142688635Y-124575000D03*
D13*
X140063635Y-125425000D03*
D12*
X140213635Y-125625000D03*
D11*
X141163635Y-124375000D03*
X141163635Y-125625000D03*
D10*
X155597725Y-125425000D03*
D11*
X155447725Y-125650000D03*
D12*
X153122725Y-124375000D03*
D13*
X152972725Y-124575000D03*
D11*
X155447725Y-124350000D03*
D10*
X155597725Y-124575000D03*
D13*
X152972725Y-125425000D03*
D12*
X153122725Y-125625000D03*
D11*
X154072725Y-124375000D03*
X154072725Y-125625000D03*
D10*
X136234090Y-125425000D03*
D11*
X136084090Y-125650000D03*
D12*
X133759090Y-124375000D03*
D13*
X133609090Y-124575000D03*
D11*
X136084090Y-124350000D03*
D10*
X136234090Y-124575000D03*
D13*
X133609090Y-125425000D03*
D12*
X133759090Y-125625000D03*
D11*
X134709090Y-124375000D03*
X134709090Y-125625000D03*
D15*
X121900000Y-127500000D03*
X122850000Y-129500000D03*
X120950000Y-129500000D03*
D10*
X174961360Y-105425000D03*
D11*
X174811360Y-105650000D03*
D12*
X172486360Y-104375000D03*
D13*
X172336360Y-104575000D03*
D11*
X174811360Y-104350000D03*
D10*
X174961360Y-104575000D03*
D13*
X172336360Y-105425000D03*
D12*
X172486360Y-105625000D03*
D11*
X173436360Y-104375000D03*
X173436360Y-105625000D03*
D10*
X168506815Y-105425000D03*
D11*
X168356815Y-105650000D03*
D12*
X166031815Y-104375000D03*
D13*
X165881815Y-104575000D03*
D11*
X168356815Y-104350000D03*
D10*
X168506815Y-104575000D03*
D13*
X165881815Y-105425000D03*
D12*
X166031815Y-105625000D03*
D11*
X166981815Y-104375000D03*
X166981815Y-105625000D03*
D10*
X149143180Y-105425000D03*
D11*
X148993180Y-105650000D03*
D12*
X146668180Y-104375000D03*
D13*
X146518180Y-104575000D03*
D11*
X148993180Y-104350000D03*
D10*
X149143180Y-104575000D03*
D13*
X146518180Y-105425000D03*
D12*
X146668180Y-105625000D03*
D11*
X147618180Y-104375000D03*
X147618180Y-105625000D03*
D10*
X129779545Y-105425000D03*
D11*
X129629545Y-105650000D03*
D12*
X127304545Y-104375000D03*
D13*
X127154545Y-104575000D03*
D11*
X129629545Y-104350000D03*
D10*
X129779545Y-104575000D03*
D13*
X127154545Y-105425000D03*
D12*
X127304545Y-105625000D03*
D11*
X128254545Y-104375000D03*
X128254545Y-105625000D03*
D10*
X123325000Y-105425000D03*
D11*
X123175000Y-105650000D03*
D12*
X120850000Y-104375000D03*
D13*
X120700000Y-104575000D03*
D11*
X123175000Y-104350000D03*
D10*
X123325000Y-104575000D03*
D13*
X120700000Y-105425000D03*
D12*
X120850000Y-105625000D03*
D11*
X121800000Y-104375000D03*
X121800000Y-105625000D03*
D10*
X194325000Y-105425000D03*
D11*
X194175000Y-105650000D03*
D12*
X191850000Y-104375000D03*
D13*
X191700000Y-104575000D03*
D11*
X194175000Y-104350000D03*
D10*
X194325000Y-104575000D03*
D13*
X191700000Y-105425000D03*
D12*
X191850000Y-105625000D03*
D11*
X192800000Y-104375000D03*
X192800000Y-105625000D03*
D10*
X162052270Y-105425000D03*
D11*
X161902270Y-105650000D03*
D12*
X159577270Y-104375000D03*
D13*
X159427270Y-104575000D03*
D11*
X161902270Y-104350000D03*
D10*
X162052270Y-104575000D03*
D13*
X159427270Y-105425000D03*
D12*
X159577270Y-105625000D03*
D11*
X160527270Y-104375000D03*
X160527270Y-105625000D03*
D10*
X181415905Y-105425000D03*
D11*
X181265905Y-105650000D03*
D12*
X178940905Y-104375000D03*
D13*
X178790905Y-104575000D03*
D11*
X181265905Y-104350000D03*
D10*
X181415905Y-104575000D03*
D13*
X178790905Y-105425000D03*
D12*
X178940905Y-105625000D03*
D11*
X179890905Y-104375000D03*
X179890905Y-105625000D03*
D14*
X95525000Y-109010000D03*
X90475000Y-109010000D03*
X95525000Y-106470000D03*
X90475000Y-106470000D03*
X95525000Y-103930000D03*
X90475000Y-103930000D03*
X95525000Y-101390000D03*
X90475000Y-101390000D03*
G36*
G01*
X119556250Y-107950000D02*
X119043750Y-107950000D01*
G75*
G02*
X118825000Y-107731250I0J218750D01*
G01*
X118825000Y-107293750D01*
G75*
G02*
X119043750Y-107075000I218750J0D01*
G01*
X119556250Y-107075000D01*
G75*
G02*
X119775000Y-107293750I0J-218750D01*
G01*
X119775000Y-107731250D01*
G75*
G02*
X119556250Y-107950000I-218750J0D01*
G01*
G37*
G36*
G01*
X119556250Y-109525000D02*
X119043750Y-109525000D01*
G75*
G02*
X118825000Y-109306250I0J218750D01*
G01*
X118825000Y-108868750D01*
G75*
G02*
X119043750Y-108650000I218750J0D01*
G01*
X119556250Y-108650000D01*
G75*
G02*
X119775000Y-108868750I0J-218750D01*
G01*
X119775000Y-109306250D01*
G75*
G02*
X119556250Y-109525000I-218750J0D01*
G01*
G37*
D10*
X187870450Y-105425000D03*
D11*
X187720450Y-105650000D03*
D12*
X185395450Y-104375000D03*
D13*
X185245450Y-104575000D03*
D11*
X187720450Y-104350000D03*
D10*
X187870450Y-104575000D03*
D13*
X185245450Y-105425000D03*
D12*
X185395450Y-105625000D03*
D11*
X186345450Y-104375000D03*
X186345450Y-105625000D03*
D10*
X142688635Y-105425000D03*
D11*
X142538635Y-105650000D03*
D12*
X140213635Y-104375000D03*
D13*
X140063635Y-104575000D03*
D11*
X142538635Y-104350000D03*
D10*
X142688635Y-104575000D03*
D13*
X140063635Y-105425000D03*
D12*
X140213635Y-105625000D03*
D11*
X141163635Y-104375000D03*
X141163635Y-105625000D03*
D10*
X155597725Y-105425000D03*
D11*
X155447725Y-105650000D03*
D12*
X153122725Y-104375000D03*
D13*
X152972725Y-104575000D03*
D11*
X155447725Y-104350000D03*
D10*
X155597725Y-104575000D03*
D13*
X152972725Y-105425000D03*
D12*
X153122725Y-105625000D03*
D11*
X154072725Y-104375000D03*
X154072725Y-105625000D03*
D10*
X136234090Y-105425000D03*
D11*
X136084090Y-105650000D03*
D12*
X133759090Y-104375000D03*
D13*
X133609090Y-104575000D03*
D11*
X136084090Y-104350000D03*
D10*
X136234090Y-104575000D03*
D13*
X133609090Y-105425000D03*
D12*
X133759090Y-105625000D03*
D11*
X134709090Y-104375000D03*
X134709090Y-105625000D03*
D15*
X121900000Y-107500000D03*
X122850000Y-109500000D03*
X120950000Y-109500000D03*
D10*
X174961360Y-85425000D03*
D11*
X174811360Y-85650000D03*
D12*
X172486360Y-84375000D03*
D13*
X172336360Y-84575000D03*
D11*
X174811360Y-84350000D03*
D10*
X174961360Y-84575000D03*
D13*
X172336360Y-85425000D03*
D12*
X172486360Y-85625000D03*
D11*
X173436360Y-84375000D03*
X173436360Y-85625000D03*
D10*
X168506815Y-85425000D03*
D11*
X168356815Y-85650000D03*
D12*
X166031815Y-84375000D03*
D13*
X165881815Y-84575000D03*
D11*
X168356815Y-84350000D03*
D10*
X168506815Y-84575000D03*
D13*
X165881815Y-85425000D03*
D12*
X166031815Y-85625000D03*
D11*
X166981815Y-84375000D03*
X166981815Y-85625000D03*
D10*
X149143180Y-85425000D03*
D11*
X148993180Y-85650000D03*
D12*
X146668180Y-84375000D03*
D13*
X146518180Y-84575000D03*
D11*
X148993180Y-84350000D03*
D10*
X149143180Y-84575000D03*
D13*
X146518180Y-85425000D03*
D12*
X146668180Y-85625000D03*
D11*
X147618180Y-84375000D03*
X147618180Y-85625000D03*
D10*
X129779545Y-85425000D03*
D11*
X129629545Y-85650000D03*
D12*
X127304545Y-84375000D03*
D13*
X127154545Y-84575000D03*
D11*
X129629545Y-84350000D03*
D10*
X129779545Y-84575000D03*
D13*
X127154545Y-85425000D03*
D12*
X127304545Y-85625000D03*
D11*
X128254545Y-84375000D03*
X128254545Y-85625000D03*
D10*
X123325000Y-85425000D03*
D11*
X123175000Y-85650000D03*
D12*
X120850000Y-84375000D03*
D13*
X120700000Y-84575000D03*
D11*
X123175000Y-84350000D03*
D10*
X123325000Y-84575000D03*
D13*
X120700000Y-85425000D03*
D12*
X120850000Y-85625000D03*
D11*
X121800000Y-84375000D03*
X121800000Y-85625000D03*
D10*
X194325000Y-85425000D03*
D11*
X194175000Y-85650000D03*
D12*
X191850000Y-84375000D03*
D13*
X191700000Y-84575000D03*
D11*
X194175000Y-84350000D03*
D10*
X194325000Y-84575000D03*
D13*
X191700000Y-85425000D03*
D12*
X191850000Y-85625000D03*
D11*
X192800000Y-84375000D03*
X192800000Y-85625000D03*
D10*
X162052270Y-85425000D03*
D11*
X161902270Y-85650000D03*
D12*
X159577270Y-84375000D03*
D13*
X159427270Y-84575000D03*
D11*
X161902270Y-84350000D03*
D10*
X162052270Y-84575000D03*
D13*
X159427270Y-85425000D03*
D12*
X159577270Y-85625000D03*
D11*
X160527270Y-84375000D03*
X160527270Y-85625000D03*
D10*
X181415905Y-85425000D03*
D11*
X181265905Y-85650000D03*
D12*
X178940905Y-84375000D03*
D13*
X178790905Y-84575000D03*
D11*
X181265905Y-84350000D03*
D10*
X181415905Y-84575000D03*
D13*
X178790905Y-85425000D03*
D12*
X178940905Y-85625000D03*
D11*
X179890905Y-84375000D03*
X179890905Y-85625000D03*
D14*
X95525000Y-89010000D03*
X90475000Y-89010000D03*
X95525000Y-86470000D03*
X90475000Y-86470000D03*
X95525000Y-83930000D03*
X90475000Y-83930000D03*
X95525000Y-81390000D03*
X90475000Y-81390000D03*
G36*
G01*
X119556250Y-87950000D02*
X119043750Y-87950000D01*
G75*
G02*
X118825000Y-87731250I0J218750D01*
G01*
X118825000Y-87293750D01*
G75*
G02*
X119043750Y-87075000I218750J0D01*
G01*
X119556250Y-87075000D01*
G75*
G02*
X119775000Y-87293750I0J-218750D01*
G01*
X119775000Y-87731250D01*
G75*
G02*
X119556250Y-87950000I-218750J0D01*
G01*
G37*
G36*
G01*
X119556250Y-89525000D02*
X119043750Y-89525000D01*
G75*
G02*
X118825000Y-89306250I0J218750D01*
G01*
X118825000Y-88868750D01*
G75*
G02*
X119043750Y-88650000I218750J0D01*
G01*
X119556250Y-88650000D01*
G75*
G02*
X119775000Y-88868750I0J-218750D01*
G01*
X119775000Y-89306250D01*
G75*
G02*
X119556250Y-89525000I-218750J0D01*
G01*
G37*
D10*
X187870450Y-85425000D03*
D11*
X187720450Y-85650000D03*
D12*
X185395450Y-84375000D03*
D13*
X185245450Y-84575000D03*
D11*
X187720450Y-84350000D03*
D10*
X187870450Y-84575000D03*
D13*
X185245450Y-85425000D03*
D12*
X185395450Y-85625000D03*
D11*
X186345450Y-84375000D03*
X186345450Y-85625000D03*
D10*
X142688635Y-85425000D03*
D11*
X142538635Y-85650000D03*
D12*
X140213635Y-84375000D03*
D13*
X140063635Y-84575000D03*
D11*
X142538635Y-84350000D03*
D10*
X142688635Y-84575000D03*
D13*
X140063635Y-85425000D03*
D12*
X140213635Y-85625000D03*
D11*
X141163635Y-84375000D03*
X141163635Y-85625000D03*
D10*
X155597725Y-85425000D03*
D11*
X155447725Y-85650000D03*
D12*
X153122725Y-84375000D03*
D13*
X152972725Y-84575000D03*
D11*
X155447725Y-84350000D03*
D10*
X155597725Y-84575000D03*
D13*
X152972725Y-85425000D03*
D12*
X153122725Y-85625000D03*
D11*
X154072725Y-84375000D03*
X154072725Y-85625000D03*
D10*
X136234090Y-85425000D03*
D11*
X136084090Y-85650000D03*
D12*
X133759090Y-84375000D03*
D13*
X133609090Y-84575000D03*
D11*
X136084090Y-84350000D03*
D10*
X136234090Y-84575000D03*
D13*
X133609090Y-85425000D03*
D12*
X133759090Y-85625000D03*
D11*
X134709090Y-84375000D03*
X134709090Y-85625000D03*
D15*
X121900000Y-87500000D03*
X122850000Y-89500000D03*
X120950000Y-89500000D03*
D11*
X173436360Y-65625000D03*
X173436360Y-64375000D03*
D12*
X172486360Y-65625000D03*
D13*
X172336360Y-65425000D03*
D10*
X174961360Y-64575000D03*
D11*
X174811360Y-64350000D03*
D13*
X172336360Y-64575000D03*
D12*
X172486360Y-64375000D03*
D11*
X174811360Y-65650000D03*
D10*
X174961360Y-65425000D03*
D11*
X166981815Y-65625000D03*
X166981815Y-64375000D03*
D12*
X166031815Y-65625000D03*
D13*
X165881815Y-65425000D03*
D10*
X168506815Y-64575000D03*
D11*
X168356815Y-64350000D03*
D13*
X165881815Y-64575000D03*
D12*
X166031815Y-64375000D03*
D11*
X168356815Y-65650000D03*
D10*
X168506815Y-65425000D03*
D11*
X128254545Y-65625000D03*
X128254545Y-64375000D03*
D12*
X127304545Y-65625000D03*
D13*
X127154545Y-65425000D03*
D10*
X129779545Y-64575000D03*
D11*
X129629545Y-64350000D03*
D13*
X127154545Y-64575000D03*
D12*
X127304545Y-64375000D03*
D11*
X129629545Y-65650000D03*
D10*
X129779545Y-65425000D03*
D14*
X90475000Y-61390000D03*
X95525000Y-61390000D03*
X90475000Y-63930000D03*
X95525000Y-63930000D03*
X90475000Y-66470000D03*
X95525000Y-66470000D03*
X90475000Y-69010000D03*
X95525000Y-69010000D03*
D11*
X134709090Y-65625000D03*
X134709090Y-64375000D03*
D12*
X133759090Y-65625000D03*
D13*
X133609090Y-65425000D03*
D10*
X136234090Y-64575000D03*
D11*
X136084090Y-64350000D03*
D13*
X133609090Y-64575000D03*
D12*
X133759090Y-64375000D03*
D11*
X136084090Y-65650000D03*
D10*
X136234090Y-65425000D03*
D11*
X141163635Y-65625000D03*
X141163635Y-64375000D03*
D12*
X140213635Y-65625000D03*
D13*
X140063635Y-65425000D03*
D10*
X142688635Y-64575000D03*
D11*
X142538635Y-64350000D03*
D13*
X140063635Y-64575000D03*
D12*
X140213635Y-64375000D03*
D11*
X142538635Y-65650000D03*
D10*
X142688635Y-65425000D03*
D11*
X121800000Y-65625000D03*
X121800000Y-64375000D03*
D12*
X120850000Y-65625000D03*
D13*
X120700000Y-65425000D03*
D10*
X123325000Y-64575000D03*
D11*
X123175000Y-64350000D03*
D13*
X120700000Y-64575000D03*
D12*
X120850000Y-64375000D03*
D11*
X123175000Y-65650000D03*
D10*
X123325000Y-65425000D03*
D11*
X186345450Y-65625000D03*
X186345450Y-64375000D03*
D12*
X185395450Y-65625000D03*
D13*
X185245450Y-65425000D03*
D10*
X187870450Y-64575000D03*
D11*
X187720450Y-64350000D03*
D13*
X185245450Y-64575000D03*
D12*
X185395450Y-64375000D03*
D11*
X187720450Y-65650000D03*
D10*
X187870450Y-65425000D03*
D11*
X192800000Y-65625000D03*
X192800000Y-64375000D03*
D12*
X191850000Y-65625000D03*
D13*
X191700000Y-65425000D03*
D10*
X194325000Y-64575000D03*
D11*
X194175000Y-64350000D03*
D13*
X191700000Y-64575000D03*
D12*
X191850000Y-64375000D03*
D11*
X194175000Y-65650000D03*
D10*
X194325000Y-65425000D03*
D11*
X147618180Y-65625000D03*
X147618180Y-64375000D03*
D12*
X146668180Y-65625000D03*
D13*
X146518180Y-65425000D03*
D10*
X149143180Y-64575000D03*
D11*
X148993180Y-64350000D03*
D13*
X146518180Y-64575000D03*
D12*
X146668180Y-64375000D03*
D11*
X148993180Y-65650000D03*
D10*
X149143180Y-65425000D03*
G36*
G01*
X119556250Y-69525000D02*
X119043750Y-69525000D01*
G75*
G02*
X118825000Y-69306250I0J218750D01*
G01*
X118825000Y-68868750D01*
G75*
G02*
X119043750Y-68650000I218750J0D01*
G01*
X119556250Y-68650000D01*
G75*
G02*
X119775000Y-68868750I0J-218750D01*
G01*
X119775000Y-69306250D01*
G75*
G02*
X119556250Y-69525000I-218750J0D01*
G01*
G37*
G36*
G01*
X119556250Y-67950000D02*
X119043750Y-67950000D01*
G75*
G02*
X118825000Y-67731250I0J218750D01*
G01*
X118825000Y-67293750D01*
G75*
G02*
X119043750Y-67075000I218750J0D01*
G01*
X119556250Y-67075000D01*
G75*
G02*
X119775000Y-67293750I0J-218750D01*
G01*
X119775000Y-67731250D01*
G75*
G02*
X119556250Y-67950000I-218750J0D01*
G01*
G37*
D11*
X160527270Y-65625000D03*
X160527270Y-64375000D03*
D12*
X159577270Y-65625000D03*
D13*
X159427270Y-65425000D03*
D10*
X162052270Y-64575000D03*
D11*
X161902270Y-64350000D03*
D13*
X159427270Y-64575000D03*
D12*
X159577270Y-64375000D03*
D11*
X161902270Y-65650000D03*
D10*
X162052270Y-65425000D03*
D11*
X179890905Y-65625000D03*
X179890905Y-64375000D03*
D12*
X178940905Y-65625000D03*
D13*
X178790905Y-65425000D03*
D10*
X181415905Y-64575000D03*
D11*
X181265905Y-64350000D03*
D13*
X178790905Y-64575000D03*
D12*
X178940905Y-64375000D03*
D11*
X181265905Y-65650000D03*
D10*
X181415905Y-65425000D03*
D11*
X154072725Y-65625000D03*
X154072725Y-64375000D03*
D12*
X153122725Y-65625000D03*
D13*
X152972725Y-65425000D03*
D10*
X155597725Y-64575000D03*
D11*
X155447725Y-64350000D03*
D13*
X152972725Y-64575000D03*
D12*
X153122725Y-64375000D03*
D11*
X155447725Y-65650000D03*
D10*
X155597725Y-65425000D03*
D15*
X120950000Y-69500000D03*
X122850000Y-69500000D03*
X121900000Y-67500000D03*
X121900000Y-47500000D03*
X122850000Y-49500000D03*
X120950000Y-49500000D03*
D14*
X95525000Y-49010000D03*
X90475000Y-49010000D03*
X95525000Y-46470000D03*
X90475000Y-46470000D03*
X95525000Y-43930000D03*
X90475000Y-43930000D03*
X95525000Y-41390000D03*
X90475000Y-41390000D03*
D10*
X123325000Y-45425000D03*
D11*
X123175000Y-45650000D03*
D12*
X120850000Y-44375000D03*
D13*
X120700000Y-44575000D03*
D11*
X123175000Y-44350000D03*
D10*
X123325000Y-44575000D03*
D13*
X120700000Y-45425000D03*
D12*
X120850000Y-45625000D03*
D11*
X121800000Y-44375000D03*
X121800000Y-45625000D03*
D10*
X129779545Y-45425000D03*
D11*
X129629545Y-45650000D03*
D12*
X127304545Y-44375000D03*
D13*
X127154545Y-44575000D03*
D11*
X129629545Y-44350000D03*
D10*
X129779545Y-44575000D03*
D13*
X127154545Y-45425000D03*
D12*
X127304545Y-45625000D03*
D11*
X128254545Y-44375000D03*
X128254545Y-45625000D03*
D10*
X136234090Y-45425000D03*
D11*
X136084090Y-45650000D03*
D12*
X133759090Y-44375000D03*
D13*
X133609090Y-44575000D03*
D11*
X136084090Y-44350000D03*
D10*
X136234090Y-44575000D03*
D13*
X133609090Y-45425000D03*
D12*
X133759090Y-45625000D03*
D11*
X134709090Y-44375000D03*
X134709090Y-45625000D03*
D10*
X142688635Y-45425000D03*
D11*
X142538635Y-45650000D03*
D12*
X140213635Y-44375000D03*
D13*
X140063635Y-44575000D03*
D11*
X142538635Y-44350000D03*
D10*
X142688635Y-44575000D03*
D13*
X140063635Y-45425000D03*
D12*
X140213635Y-45625000D03*
D11*
X141163635Y-44375000D03*
X141163635Y-45625000D03*
D10*
X149143180Y-45425000D03*
D11*
X148993180Y-45650000D03*
D12*
X146668180Y-44375000D03*
D13*
X146518180Y-44575000D03*
D11*
X148993180Y-44350000D03*
D10*
X149143180Y-44575000D03*
D13*
X146518180Y-45425000D03*
D12*
X146668180Y-45625000D03*
D11*
X147618180Y-44375000D03*
X147618180Y-45625000D03*
D10*
X155597725Y-45425000D03*
D11*
X155447725Y-45650000D03*
D12*
X153122725Y-44375000D03*
D13*
X152972725Y-44575000D03*
D11*
X155447725Y-44350000D03*
D10*
X155597725Y-44575000D03*
D13*
X152972725Y-45425000D03*
D12*
X153122725Y-45625000D03*
D11*
X154072725Y-44375000D03*
X154072725Y-45625000D03*
D10*
X162052270Y-45425000D03*
D11*
X161902270Y-45650000D03*
D12*
X159577270Y-44375000D03*
D13*
X159427270Y-44575000D03*
D11*
X161902270Y-44350000D03*
D10*
X162052270Y-44575000D03*
D13*
X159427270Y-45425000D03*
D12*
X159577270Y-45625000D03*
D11*
X160527270Y-44375000D03*
X160527270Y-45625000D03*
D10*
X168506815Y-45425000D03*
D11*
X168356815Y-45650000D03*
D12*
X166031815Y-44375000D03*
D13*
X165881815Y-44575000D03*
D11*
X168356815Y-44350000D03*
D10*
X168506815Y-44575000D03*
D13*
X165881815Y-45425000D03*
D12*
X166031815Y-45625000D03*
D11*
X166981815Y-44375000D03*
X166981815Y-45625000D03*
D10*
X174961360Y-45425000D03*
D11*
X174811360Y-45650000D03*
D12*
X172486360Y-44375000D03*
D13*
X172336360Y-44575000D03*
D11*
X174811360Y-44350000D03*
D10*
X174961360Y-44575000D03*
D13*
X172336360Y-45425000D03*
D12*
X172486360Y-45625000D03*
D11*
X173436360Y-44375000D03*
X173436360Y-45625000D03*
D10*
X181415905Y-45425000D03*
D11*
X181265905Y-45650000D03*
D12*
X178940905Y-44375000D03*
D13*
X178790905Y-44575000D03*
D11*
X181265905Y-44350000D03*
D10*
X181415905Y-44575000D03*
D13*
X178790905Y-45425000D03*
D12*
X178940905Y-45625000D03*
D11*
X179890905Y-44375000D03*
X179890905Y-45625000D03*
D10*
X187870450Y-45425000D03*
D11*
X187720450Y-45650000D03*
D12*
X185395450Y-44375000D03*
D13*
X185245450Y-44575000D03*
D11*
X187720450Y-44350000D03*
D10*
X187870450Y-44575000D03*
D13*
X185245450Y-45425000D03*
D12*
X185395450Y-45625000D03*
D11*
X186345450Y-44375000D03*
X186345450Y-45625000D03*
D10*
X194325000Y-45425000D03*
D11*
X194175000Y-45650000D03*
D12*
X191850000Y-44375000D03*
D13*
X191700000Y-44575000D03*
D11*
X194175000Y-44350000D03*
D10*
X194325000Y-44575000D03*
D13*
X191700000Y-45425000D03*
D12*
X191850000Y-45625000D03*
D11*
X192800000Y-44375000D03*
X192800000Y-45625000D03*
G36*
G01*
X119556250Y-47950000D02*
X119043750Y-47950000D01*
G75*
G02*
X118825000Y-47731250I0J218750D01*
G01*
X118825000Y-47293750D01*
G75*
G02*
X119043750Y-47075000I218750J0D01*
G01*
X119556250Y-47075000D01*
G75*
G02*
X119775000Y-47293750I0J-218750D01*
G01*
X119775000Y-47731250D01*
G75*
G02*
X119556250Y-47950000I-218750J0D01*
G01*
G37*
G36*
G01*
X119556250Y-49525000D02*
X119043750Y-49525000D01*
G75*
G02*
X118825000Y-49306250I0J218750D01*
G01*
X118825000Y-48868750D01*
G75*
G02*
X119043750Y-48650000I218750J0D01*
G01*
X119556250Y-48650000D01*
G75*
G02*
X119775000Y-48868750I0J-218750D01*
G01*
X119775000Y-49306250D01*
G75*
G02*
X119556250Y-49525000I-218750J0D01*
G01*
G37*
M02*
